<svg width="193" height="30" viewBox="0 0 193 30" fill="none" xmlns="http://www.w3.org/2000/svg">
<path d="M0.146307 24.5234H2.96449V14.1143H15.3736V24.5234H18.1918V1.25071H15.3736V11.6143H2.96449V1.25071H0.146307V24.5234ZM28.6065 24.9325C31.652 24.9325 33.2429 23.2962 33.7884 22.1598H33.9247V24.5234H36.6065V13.0234C36.6065 7.47798 32.3793 6.84162 30.152 6.84162C27.5156 6.84162 24.5156 7.75071 23.152 10.9325L25.6974 11.8416C26.2884 10.5689 27.6861 9.20526 30.2429 9.20526C32.7088 9.20526 33.9247 10.5121 33.9247 12.7507V12.8416C33.9247 14.1371 32.6065 14.0234 29.4247 14.4325C26.1861 14.853 22.652 15.5689 22.652 19.5689C22.652 22.978 25.2884 24.9325 28.6065 24.9325ZM29.0156 22.5234C26.8793 22.5234 25.3338 21.5689 25.3338 19.7053C25.3338 17.6598 27.1974 17.0234 29.2884 16.7507C30.4247 16.6143 33.4702 16.2962 33.9247 15.7507V18.2053C33.9247 20.3871 32.1974 22.5234 29.0156 22.5234ZM39.6378 29.5234H42.3196V24.5234H55.2287V29.5234H57.9105V22.0234H55.2287V7.06889H44.1378L43.5469 13.978C43.1264 18.8643 42.5014 20.5462 41.0923 22.0234H39.6378V29.5234ZM44.1378 22.0234C45.3651 20.4098 45.8082 17.6257 46.1832 13.978L46.6378 9.56889H52.5469V22.0234H44.1378ZM68.7884 24.8871C72.3338 24.8871 74.9247 23.1143 75.7429 20.478L73.152 19.7507C72.4702 21.5689 70.8906 22.478 68.7884 22.478C65.6406 22.478 63.4702 20.4439 63.3452 16.7053H76.0156V15.5689C76.0156 9.06889 72.152 6.84162 68.5156 6.84162C63.7884 6.84162 60.652 10.5689 60.652 15.9325C60.652 21.2962 63.7429 24.8871 68.7884 24.8871ZM63.3452 14.3871C63.527 11.6712 65.4474 9.25071 68.5156 9.25071C71.4247 9.25071 73.2884 11.4325 73.2884 14.3871H63.3452ZM65.1065 4.1598C66.152 4.1598 66.9247 3.29616 66.9247 2.34162C66.9247 1.29616 66.152 0.523438 65.1065 0.523438C64.152 0.523438 63.2884 1.29616 63.2884 2.34162C63.2884 3.29616 64.152 4.1598 65.1065 4.1598ZM71.652 4.1598C72.6974 4.1598 73.4702 3.29616 73.4702 2.34162C73.4702 1.29616 72.6974 0.523438 71.652 0.523438C70.6974 0.523438 69.8338 1.29616 69.8338 2.34162C69.8338 3.29616 70.6974 4.1598 71.652 4.1598ZM78.5355 24.5234H81.7628L87.7173 17.0234H89.081V24.5234H91.7628V17.0234H93.1264L99.0355 24.5234H102.263L95.2173 15.6598L102.172 7.06889H98.9901L93.1719 14.5234H91.7628V7.06889H89.081V14.5234H87.6264L81.8082 7.06889H78.6264L85.6264 15.6598L78.5355 24.5234ZM108.777 7.06889H106.095V24.5234H108.777V17.0689H117.141V24.5234H119.822V7.06889H117.141V14.5689H108.777V7.06889ZM131.811 24.8871C136.538 24.8871 139.72 21.2962 139.72 15.8871C139.72 10.4325 136.538 6.84162 131.811 6.84162C127.084 6.84162 123.902 10.4325 123.902 15.8871C123.902 21.2962 127.084 24.8871 131.811 24.8871ZM131.811 22.478C128.22 22.478 126.584 19.3871 126.584 15.8871C126.584 12.3871 128.22 9.25071 131.811 9.25071C135.402 9.25071 137.038 12.3871 137.038 15.8871C137.038 19.3871 135.402 22.478 131.811 22.478ZM150.905 24.8871C154.768 24.8871 157.314 22.5234 157.768 19.4325H155.087C154.587 21.3416 152.996 22.478 150.905 22.478C147.723 22.478 145.678 19.8416 145.678 15.7962C145.678 11.8416 147.768 9.25071 150.905 9.25071C153.268 9.25071 154.678 10.7053 155.087 12.2962H157.768C157.314 9.02344 154.541 6.84162 150.859 6.84162C146.132 6.84162 142.996 10.5689 142.996 15.8871C142.996 21.1143 145.996 24.8871 150.905 24.8871ZM160.314 9.56889H166.087V24.5234H168.768V9.56889H174.496V7.06889H160.314V9.56889ZM181.089 13.3871V7.06889H178.408V24.5234H185.726C189.817 24.5234 192.044 22.0234 192.044 18.8871C192.044 15.7053 189.817 13.3871 185.726 13.3871H181.089ZM181.089 15.8871H185.726C187.851 15.8871 189.362 17.1825 189.362 19.0234C189.362 20.7848 187.851 22.0234 185.726 22.0234H181.089V15.8871Z" fill="#212B31"/>
</svg>
